<svg viewBox="0 0 16 16" fill="none" width="32" height="32" xmlns="http://www.w3.org/2000/svg" xmlns:xlink="http://www.w3.org/1999/xlink">
    <path fill="#fff" d="M2.146 2.8539C2.0995 2.8074 2.0627 2.7522 2.0375 2.6915 2.0123 2.6307 1.9994 2.5656 1.9994 2.4999c0-0.0657 0.0129-0.1308 0.0381-0.1916 0.0252-0.0607 0.062-0.1159 0.1085-0.1624 0.0465-0.0465 0.1017-0.0834 0.1624-0.1085C2.3692 2.0122 2.4343 1.9993 2.5 1.9993c0.0658 0 0.1309 0.0129 0.1916 0.0381 0.0607 0.0251 0.1159 0.062 0.1624 0.1085L8 7.2929l5.146-5.147c0.0465-0.0465 0.1017-0.0834 0.1624-0.1085 0.0608-0.0252 0.1259-0.0381 0.1916-0.0381 0.0658 0 0.1309 0.0129 0.1916 0.0381 0.0607 0.0251 0.1159 0.062 0.1624 0.1085s0.0834 0.1017 0.1085 0.1624c0.0252 0.0608 0.0382 0.1259 0.0382 0.1916s-0.013 0.1308-0.0382 0.1916c-0.0251 0.0607-0.062 0.1159-0.1085 0.1624l-5.147 5.146 5.147 5.146c0.0465 0.0465 0.0834 0.1017 0.1085 0.1624 0.0252 0.0608 0.0382 0.1259 0.0382 0.1916s-0.013 0.1308-0.0382 0.1916c-0.0251 0.0607-0.062 0.1159-0.1085 0.1624s-0.1017 0.0834-0.1624 0.1085c-0.0607 0.0252-0.1258 0.0381-0.1916 0.0381-0.0657 0-0.1308-0.0129-0.1916-0.0381-0.0607-0.0251-0.1159-0.062-0.1624-0.1085L8 8.7069l-5.146 5.147c-0.0465 0.0465-0.1017 0.0834-0.1624 0.1085-0.0607 0.0252-0.1258 0.0381-0.1916 0.0381-0.0657 0-0.1308-0.0129-0.1916-0.0381-0.0607-0.0251-0.1159-0.062-0.1624-0.1085-0.0465-0.0465-0.0833-0.1017-0.1085-0.1624-0.0252-0.0608-0.0381-0.1259-0.0381-0.1916 0-0.0657 0.0129-0.1308 0.0381-0.1916 0.0252-0.0607 0.062-0.1159 0.1085-0.1624l5.147-5.146z" />
</svg>