<svg viewBox="0 0 24 24" fill="#fff" width="32" height="32" xmlns="http://www.w3.org/2000/svg" xmlns:xlink="http://www.w3.org/1999/xlink">
    <path d="M3.75 12c-2e-4-1.4482 0.3808-2.8711 1.1048-4.1254 0.724-1.2543 1.7655-2.296 3.0197-3.0202 1.2542-0.7243 2.6769-1.1056 4.1252-1.1056 1.4483-1e-4 2.8711 0.3811 4.1253 1.1052 0.1722 0.0979 0.3761 0.1238 0.5672 0.0719 0.1911-0.0519 0.354-0.1773 0.453-0.3488 0.099-0.1716 0.1262-0.3753 0.0756-0.5667-0.0506-0.1915-0.1749-0.3552-0.3458-0.4554-1.8587-1.0731-4.0196-1.5029-6.1475-1.2228-2.1279 0.2801-4.1039 1.2545-5.6216 2.7721-1.5176 1.5176-2.4922 3.4935-2.7724 5.6214-0.2803 2.1279 0.1494 4.2888 1.2225 6.1476 1.073 1.8587 2.7293 3.3115 4.7121 4.133s4.1813 0.9658 6.2545 0.4105 3.9052-1.7791 5.2119-3.4817C21.0413 16.2325 21.7497 14.1463 21.75 12c0-0.1989-0.079-0.3896-0.2197-0.5303C21.3897 11.3291 21.1989 11.25 21 11.25s-0.3897 0.0791-0.5303 0.2197C20.329 11.6104 20.25 11.8011 20.25 12c0 2.1881-0.8692 4.2865-2.4164 5.8337C16.2865 19.3809 14.188 20.25 12 20.25c-2.188 0-4.2864-0.8691-5.8336-2.4163C4.6192 16.2865 3.75 14.1881 3.75 12z" />
    <path d="M23.031 5.031c0.0697-0.0698 0.125-0.1525 0.1628-0.2437 0.0377-0.0911 0.0571-0.1887 0.0571-0.2873 0-0.0987-0.0194-0.1963-0.0571-0.2874-0.0378-0.0911-0.0931-0.1739-0.1628-0.2436-0.0698-0.0698-0.1525-0.1251-0.2437-0.1628C22.6962 3.7685 22.5986 3.749 22.5 3.749c-0.0986 0-0.1963 0.0194-0.2874 0.0572-0.0911 0.0377-0.1739 0.093-0.2436 0.1628L12 13.9395 8.031 9.969C7.9612 9.8992 7.8785 9.8439 7.7874 9.8062 7.6962 9.7685 7.5986 9.749 7.5 9.749c-0.0986 0-0.1963 0.0194-0.2874 0.0572C7.1215 9.8439 7.0387 9.8992 6.969 9.969c-0.0698 0.0697-0.1251 0.1525-0.1628 0.2436C6.7685 10.3037 6.749 10.4014 6.749 10.5c0 0.0986 0.0194 0.1962 0.0572 0.2873 0.0377 0.0912 0.093 0.1739 0.1628 0.2437l4.5 4.5c0.0696 0.0698 0.1524 0.1252 0.2435 0.163S11.9013 15.7513 12 15.7513c0.0986 0 0.1963-0.0195 0.2874-0.0573s0.1739-0.0932 0.2436-0.163z" />
</svg>