<svg viewBox="0 0 24 24" fill="none" width="32" height="32" xmlns="http://www.w3.org/2000/svg" xmlns:xlink="http://www.w3.org/1999/xlink">
    <g fill="#fafafb" clip-path="url(#clip0_602_57)">
        <path d="M6.81 0.219C6.9506 0.0788 7.141 0 7.3395 0h9.321c0.1985 0 0.3889 0.0788 0.5295 0.219l6.591 6.591C23.9212 6.9506 24 7.141 24 7.3395v9.321c0 0.1985-0.0788 0.3889-0.219 0.5295l-6.591 6.591C17.0494 23.9212 16.859 24 16.6605 24h-9.321C7.141 24 6.9506 23.9212 6.81 23.781L0.219 17.19C0.0788 17.0494 0 16.859 0 16.6605v-9.321C0 7.141 0.0788 6.9506 0.219 6.81zM7.65 1.5 1.5 7.65v8.7l6.15 6.15h8.7l6.15-6.15v-8.7L16.35 1.5z" />
        <path d="M6.969 6.9691c0.0697-0.0698 0.1524-0.1252 0.2435-0.1631C7.3037 6.7682 7.4014 6.7488 7.5 6.7488c0.0987 0 0.1963 0.0194 0.2874 0.0572 0.0912 0.0379 0.1739 0.0933 0.2436 0.1631L12 10.9396l3.969-3.9705c0.0697-0.0697 0.1525-0.125 0.2436-0.1628 0.0911-0.0377 0.1888-0.0571 0.2874-0.0571 0.0986 0 0.1963 0.0194 0.2874 0.0571 0.0911 0.0378 0.1739 0.0931 0.2436 0.1628 0.0697 0.0697 0.125 0.1525 0.1628 0.2436 0.0377 0.0911 0.0571 0.1888 0.0571 0.2874 0 0.0986-0.0194 0.1963-0.0571 0.2874-0.0378 0.0911-0.0931 0.1739-0.1628 0.2436l-3.9705 3.969 3.9705 3.969c0.0697 0.0698 0.125 0.1525 0.1628 0.2436 0.0377 0.0912 0.0571 0.1888 0.0571 0.2874s-0.0194 0.1963-0.0571 0.2874c-0.0378 0.0911-0.0931 0.1739-0.1628 0.2436-0.0697 0.0698-0.1525 0.1251-0.2436 0.1628s-0.1888 0.0572-0.2874 0.0572-0.1963-0.0195-0.2874-0.0572-0.1739-0.093-0.2436-0.1628L12 13.0606 8.031 17.0311c-0.0697 0.0698-0.1525 0.1251-0.2436 0.1628-0.0911 0.0377-0.1888 0.0572-0.2874 0.0572-0.0986 0-0.1963-0.0195-0.2874-0.0572-0.0911-0.0377-0.1739-0.093-0.2436-0.1628-0.0697-0.0697-0.1251-0.1525-0.1628-0.2436-0.0377-0.0911-0.0572-0.1888-0.0572-0.2874 0-0.0986 0.0195-0.1962 0.0572-0.2874 0.0377-0.0911 0.0931-0.1738 0.1628-0.2436l3.9705-3.969-3.9705-3.969C6.8992 7.9615 6.8437 7.8787 6.8059 7.7876 6.7681 7.6965 6.7487 7.5988 6.7487 7.5001c0-0.0986 0.0194-0.1963 0.0572-0.2874 0.0378-0.0912 0.0932-0.1739 0.1631-0.2436z" />
    </g>
    <defs>
        <clipPath id="clip0_602_57">
            <rect fill="#fff" width="24" height="24" />
        </clipPath>
    </defs>
</svg>